<svg width="106" height="113" viewBox="0 0 106 113" fill="none" xmlns="http://www.w3.org/2000/svg">
<g id="whatsapp (1) 1">
<g id="Group">
<path id="Vector" fill-rule="evenodd" clip-rule="evenodd" d="M53.2798 11.0352C76.5644 11.0352 95.4349 31.1528 95.4349 55.975C95.4349 80.7972 76.5644 100.914 53.2798 100.914C46.1833 100.914 39.2551 99.0423 33.0328 95.4007L30.1085 93.6893L14.3903 98.2181L18.6757 81.9153L16.8933 78.6781C13.0923 71.7725 11.1239 63.9806 11.1239 55.975C11.1239 31.1528 29.9953 11.0352 53.2798 11.0352V11.0352ZM29.0483 103.139C36.2394 107.348 44.4972 109.742 53.2798 109.742C81.1352 109.742 103.716 85.6699 103.716 55.975C103.716 26.2792 81.1352 2.20703 53.2798 2.20703C25.4236 2.20703 2.84264 26.2792 2.84264 55.975C2.84264 65.8876 5.36179 75.1727 9.7515 83.1465L2.48438 110.793L29.0483 103.139Z" fill="white"/>
<path id="Vector_2" fill-rule="evenodd" clip-rule="evenodd" d="M95.435 55.975C95.435 31.1528 76.5644 11.0352 53.2798 11.0352C29.9953 11.0352 11.1239 31.1528 11.1239 55.975C11.1239 63.9806 13.0923 71.7725 16.8941 78.6781L18.6757 81.9153L14.3903 98.2181L30.1085 93.6893L33.0336 95.4007C39.2551 99.0423 46.1833 100.914 53.2798 100.914C76.5644 100.914 95.435 80.7972 95.435 55.975V55.975ZM41.2526 53.6826C43.149 57.1845 46.4599 61.1201 49.5201 63.6461C53.2168 66.6972 59.0152 70.706 60.9004 68.9283C61.7899 68.0895 64.2379 64.3082 64.5638 64.0384C64.8906 63.7677 65.9767 61.8339 68.5411 63.159C71.1047 64.485 77.5017 67.8679 77.5017 67.8679C77.5017 67.8679 78.8878 68.4645 78.8288 70.7802C78.7706 73.095 78.6759 73.6881 78.6759 73.6881C78.6759 73.6881 77.7467 81.6274 67.5812 81.9438C62.9796 82.0869 57.6509 80.0868 52.9297 77.5194C44.8708 73.1389 39.8374 68.2973 34.4545 60.7666C30.7991 55.6534 27.1478 48.9349 27.7932 42.963C28.9132 32.6011 35.0942 31.6459 35.0942 31.6459C35.0942 31.6459 35.6539 31.5743 37.8269 31.6218C39.9991 31.6692 40.4916 33.1736 40.4916 33.1736C40.4916 33.1736 43.4928 40.4801 44.6128 43.2733C45.7329 46.0666 44.5231 47.2839 44.2546 47.6184C43.9861 47.9529 42.3735 49.9824 41.5446 50.8893C40.7156 51.7963 40.9129 53.0541 41.2526 53.6826V53.6826Z" fill="#2BB140"/>
<path id="Vector_3" fill-rule="evenodd" clip-rule="evenodd" d="M44.612 43.2725C43.4927 40.4792 40.4916 33.1736 40.4916 33.1736C40.4916 33.1736 39.9991 31.6692 37.8261 31.6218C35.6539 31.5743 35.0934 31.6459 35.0934 31.6459C35.0934 31.6459 28.9124 32.6011 27.7923 42.963C27.147 48.9349 30.7983 55.6525 34.4537 60.7666C39.8374 68.2973 44.8708 73.1389 52.9288 77.5194C57.6509 80.0859 62.9796 82.0869 67.5812 81.9438C77.7467 81.6274 78.6759 73.6881 78.6759 73.6881C78.6759 73.6881 78.7697 73.095 78.8288 70.7793C78.8878 68.4645 77.5017 67.8679 77.5017 67.8679C77.5017 67.8679 71.1047 64.485 68.5403 63.159C65.9767 61.8331 64.8898 63.7677 64.5638 64.0375C64.2379 64.3082 61.7891 68.0895 60.8995 68.9283C59.0152 70.706 53.2159 66.6972 49.5193 63.6461C46.4599 61.1201 43.149 57.1845 41.2526 53.6826C40.9121 53.0541 40.7148 51.7963 41.5437 50.8885C42.3727 49.9815 43.9853 47.9521 44.2538 47.6184C44.5231 47.2839 45.7321 46.0666 44.612 43.2725V43.2725Z" fill="white"/>
</g>
<path id="Vector_4" d="M90.408 16.3941C80.4907 5.82277 67.3046 0 53.2798 0C42.2489 0 31.6912 3.60712 22.7484 10.4325C21.8184 11.1421 21.604 12.5206 22.2696 13.512C22.936 14.5035 24.2291 14.7311 25.1584 14.0215C33.3943 7.73668 43.1183 4.41406 53.2798 4.41406C79.9488 4.41406 101.646 27.5439 101.646 55.975C101.646 84.4052 79.9488 107.535 53.2798 107.535C45.1555 107.535 37.1209 105.346 30.0446 101.204C29.5747 100.93 29.024 100.86 28.5081 101.009L5.46127 107.649L11.745 83.7422C11.897 83.1646 11.8218 82.5464 11.5371 82.03C7.20324 74.1571 4.91296 65.1479 4.91296 55.975C4.91296 45.1415 8.02975 34.7754 13.9253 25.9964C14.5909 25.0058 14.3766 23.6273 13.4473 22.9178C12.5173 22.2083 11.2242 22.4359 10.5586 23.4273C4.156 32.9598 0.772334 44.2148 0.772334 55.975C0.772334 65.6161 3.10386 75.0917 7.52349 83.4439L0.490901 110.197C0.28953 110.962 0.490092 111.783 1.01333 112.347C1.40798 112.77 1.93931 113 2.48439 113C2.66473 113 2.84588 112.975 3.02461 112.923L28.7927 105.5C36.2952 109.721 44.743 111.949 53.279 111.949C67.3046 111.949 80.4907 106.127 90.4072 95.5541C100.324 84.9828 105.787 70.9259 105.787 55.9741C105.787 41.0232 100.325 26.9672 90.408 16.3941V16.3941Z" fill="black"/>
<path id="Vector_5" d="M87.216 82.7283C88.167 83.4051 89.4529 83.1318 90.0877 82.1179C94.94 74.3675 97.5053 65.3273 97.5053 55.9741C97.5053 43.3802 92.9053 31.5399 84.5529 22.6359C76.2005 13.7319 65.0944 8.82812 53.2798 8.82812C41.4653 8.82812 30.3584 13.7319 22.006 22.6359C13.6536 31.5399 9.05359 43.3802 9.05359 55.975C9.05359 64.3634 11.1474 72.6001 15.1084 79.7954L16.4444 82.2231L12.3968 97.6223C12.1954 98.3862 12.3952 99.2069 12.9193 99.7708C13.4433 100.335 14.2116 100.555 14.9305 100.348L29.8432 96.0516L32.0365 97.3353C38.5046 101.121 45.8502 103.121 53.279 103.121C62.0536 103.121 70.5338 100.386 77.8033 95.2127C78.7544 94.5368 79.0107 93.166 78.3759 92.1522C77.7411 91.1383 76.456 90.865 75.505 91.5418C68.918 96.2292 61.2327 98.7069 53.279 98.7069C46.5448 98.7069 39.8883 96.8947 34.0292 93.4661L31.1048 91.7539C30.6358 91.4797 30.0851 91.4099 29.5683 91.5582L17.3664 95.0739L20.6692 82.5102C20.8204 81.9326 20.746 81.3145 20.4613 80.798L18.6789 77.5608C15.0907 71.0423 13.1942 63.578 13.1942 55.9741C13.1942 32.4115 31.1768 13.2422 53.2798 13.2422C75.3828 13.2422 93.3646 32.4115 93.3646 55.975C93.3646 64.4522 91.0404 72.645 86.6434 79.6678C86.0086 80.6817 86.2649 82.0516 87.216 82.7283V82.7283Z" fill="black"/>
<path id="telefono" d="M45.7135 49.1953L45.8502 49.0254C47.7046 46.8063 47.2363 44.2001 46.5165 42.4052C45.4531 39.7542 42.6711 32.9779 42.4075 32.3365C41.9966 31.2295 40.6259 29.4759 37.869 29.4147C35.7194 29.3682 35.0126 29.4328 34.8476 29.4544C34.8306 29.4561 34.8136 29.4587 34.7974 29.4613C34.4804 29.5104 27.0241 30.7967 25.7366 42.7104C25.1446 48.1874 27.5239 54.712 32.808 62.1047C38.6583 70.2888 44.0362 75.1624 51.9891 79.485C55.9494 81.6378 61.7342 84.1577 67.1194 84.1577C67.2941 84.1577 67.4688 84.1551 67.6418 84.1491C73.6902 83.9612 76.9202 81.2817 78.5643 79.0669C80.3095 76.7159 80.6743 74.3994 80.7268 73.9976C80.7616 73.7424 80.8457 72.9372 80.8991 70.8397C80.9735 67.9007 79.3949 66.3575 78.3775 65.867C77.8025 65.5626 71.8746 62.4297 69.4444 61.1736C67.8036 60.3244 65.3912 59.8399 63.2198 62.3512C63.2084 62.3642 63.1979 62.3771 63.1874 62.3883C62.8939 62.6616 62.6035 63.0694 61.7212 64.3281C61.1778 65.1031 60.0933 66.6498 59.6323 67.1662C58.6586 67.2395 55.4027 65.7109 50.7874 61.9012C47.8784 59.4993 44.7721 55.7603 43.0536 52.5929C43.0366 52.548 43.0261 52.4661 43.031 52.4248C43.7435 51.6437 44.9032 50.2082 45.7135 49.1953V49.1953ZM48.2521 65.3911C49.6317 66.5299 52.3369 68.6516 54.9523 70.0664C56.1888 70.7345 59.9517 72.77 62.2719 70.581C62.9125 69.9767 63.8223 68.7033 65.0369 66.9705C65.3871 66.4713 65.8174 65.8583 65.984 65.6463C66.0923 65.5411 66.1821 65.4376 66.2638 65.3428C66.6366 64.9117 66.8064 64.7152 67.637 65.1445C70.131 66.4342 76.3533 69.7241 76.5765 69.8413C76.6533 69.9232 76.773 70.1896 76.7593 70.7198C76.7132 72.5493 76.6461 73.2105 76.6323 73.3347C76.6234 73.3803 76.6275 73.3528 76.6226 73.4028C76.5983 73.5528 76.3379 75.0322 75.1968 76.4848C73.5875 78.535 71.0053 79.629 67.5213 79.7368C62.8631 79.8842 57.528 77.5418 53.8694 75.5529C46.426 71.5061 41.6101 67.136 36.1003 59.4286C31.5521 53.0662 29.3904 47.4589 29.8489 43.2147C30.7126 35.2237 34.8209 33.9685 35.3716 33.8357C35.5657 33.8228 36.2224 33.7934 37.7832 33.8279C38.2806 33.8391 38.524 33.9797 38.5976 34.065C38.7003 34.315 41.619 41.4224 42.7083 44.1398C43.2526 45.4976 42.9186 45.8976 42.7576 46.0899C42.7285 46.1244 42.7035 46.1554 42.6816 46.1813L42.5627 46.3304C41.3666 47.8245 40.5248 48.8409 40.0606 49.3487C38.5321 51.0229 38.6769 53.3403 39.4597 54.7852C41.4508 58.4631 44.9024 62.6254 48.2521 65.3911V65.3911Z" fill="black"/>
<path id="Vector_6" d="M17.6155 20.1616C18.1128 20.1616 18.6118 19.9719 19.0081 19.5874C19.854 18.7675 19.9171 17.3718 19.148 16.47C18.3781 15.5682 17.0696 15.5018 16.2229 16.3217L16.2221 16.3226C15.3762 17.1424 15.3147 18.5373 16.0838 19.44C16.4922 19.9185 17.0526 20.1616 17.6155 20.1616Z" fill="black"/>
<path id="Vector_7" d="M81.5566 86.2665L81.5558 86.2682C80.7867 87.17 80.8498 88.5649 81.6957 89.3848C82.0919 89.7693 82.5901 89.9589 83.0875 89.9589C83.6503 89.9589 84.2116 89.715 84.62 89.2356C85.3899 88.3338 85.3268 86.9381 84.4809 86.1182C83.635 85.2983 82.3257 85.3647 81.5566 86.2665Z" fill="black"/>
</g>
</svg>
